<svg xmlns="http://www.w3.org/2000/svg" width="15.971" height="15.171" viewBox="0 0 15.971 15.171">
  <g id="like" transform="translate(0 -0.02)">
    <path id="Tracé_23" data-name="Tracé 23" d="M11.194,152.8V144.02H8v10.114h3.194Zm0,0" transform="translate(-7.734 -139.209)" fill="#9bc9ff"/>
    <path id="Tracé_24" data-name="Tracé 24" d="M15.969,8.867a1.284,1.284,0,0,0-.364-.954,1.424,1.424,0,0,0-.513-.343,1.34,1.34,0,0,0,.344-.82,1.28,1.28,0,0,0-.359-.958,1.437,1.437,0,0,0-1.042-.449H10.114a.266.266,0,0,1-.266-.266V1.883A1.865,1.865,0,0,0,7.984.02H7.452a.8.8,0,0,0-.8.8v1.6A2.931,2.931,0,0,1,3.726,5.343V4.811a.266.266,0,0,0-.266-.266H.266A.266.266,0,0,0,0,4.811V14.925a.266.266,0,0,0,.266.266H3.46a.266.266,0,0,0,.266-.266v-.908a4.554,4.554,0,0,0,1.8.376h7.778a1.331,1.331,0,0,0,1.046-2.152,1.33,1.33,0,0,0,.748-2.189,1.36,1.36,0,0,0,.479-.308,1.34,1.34,0,0,0,.388-.876ZM3.194,14.659H.532V5.077H3.194ZM15.2,9.367a.8.8,0,0,1-.566.235h-.532a.266.266,0,0,0,0,.532.8.8,0,0,1,0,1.6h-.8a.266.266,0,1,0,0,.532.8.8,0,0,1,0,1.6H5.53a4.013,4.013,0,0,1-1.783-.421l-.021-.01V5.875a3.464,3.464,0,0,0,3.46-3.46V.818A.266.266,0,0,1,7.452.552h.532A1.332,1.332,0,0,1,9.315,1.883V5.077a.8.8,0,0,0,.8.8h3.922a.9.9,0,0,1,.653.283.752.752,0,0,1,.213.562.8.8,0,0,1-.8.753.266.266,0,1,0,0,.532h.472a.889.889,0,0,1,.64.275.76.76,0,0,1,.218.561.806.806,0,0,1-.232.525Zm0,0" fill="#1e81ce"/>
  </g>
</svg>
