<svg xmlns="http://www.w3.org/2000/svg" width="23.339" height="27.785" viewBox="0 0 23.339 27.785">
  <path id="icon-macos" d="M24.484,21.672a16.368,16.368,0,0,1-1.528,2.64,13.365,13.365,0,0,1-1.945,2.362,3.735,3.735,0,0,1-2.5,1.111,4.763,4.763,0,0,1-2.223-.556,5.449,5.449,0,0,0-2.5-.556,5.449,5.449,0,0,0-2.5.556,10.172,10.172,0,0,1-2.223.556,3.394,3.394,0,0,1-2.5-1.111,9.179,9.179,0,0,1-1.945-2.362,19.477,19.477,0,0,1-2.084-4.168,16.393,16.393,0,0,1-.834-5A9.385,9.385,0,0,1,2.95,10.28a7.171,7.171,0,0,1,2.5-2.5,4.3,4.3,0,0,1,3.2-1.111,7.454,7.454,0,0,1,2.64.556,7.462,7.462,0,0,0,2.084.556,20.4,20.4,0,0,0,2.362-.695,7.356,7.356,0,0,1,3.2-.556,6.688,6.688,0,0,1,5.279,2.778,5.841,5.841,0,0,0-3.056,5.279,5.993,5.993,0,0,0,1.945,4.446,5.827,5.827,0,0,0,1.945,1.25,9.578,9.578,0,0,0-.556,1.389ZM19.066.556a6.26,6.26,0,0,1-1.528,3.89,5.183,5.183,0,0,1-4.307,2.084V5.974A5.486,5.486,0,0,1,14.9,2.084,7.3,7.3,0,0,1,16.843.556,6.539,6.539,0,0,1,19.066,0V.556Z" transform="translate(-1.7 0)" fill="#fff"/>
</svg>
