<svg id="logo_steam" xmlns="http://www.w3.org/2000/svg" width="366.747" height="110.552" viewBox="0 0 366.747 110.552">
  <g id="Groupe_5" data-name="Groupe 5">
    <path id="Tracé_11" data-name="Tracé 11" d="M55.144,0A55.251,55.251,0,0,0,0,50.79L29.683,63.059a15.613,15.613,0,0,1,8.839-2.77h.923L52.637,41.16V40.9A20.844,20.844,0,1,1,73.481,61.74h-.528L54.089,75.328v.792a15.659,15.659,0,0,1-31,3.166L1.847,70.315A55.265,55.265,0,1,0,55.144,0Z" fill="#fff"/>
    <path id="Tracé_12" data-name="Tracé 12" d="M27.928,68.321,21.2,65.55a11.859,11.859,0,0,0,6.068,5.8,11.711,11.711,0,0,0,15.3-15.3,11.477,11.477,0,0,0-6.332-6.332,11.7,11.7,0,0,0-8.707-.132l6.992,2.9a8.575,8.575,0,1,1-6.6,15.831Z" transform="translate(6.768 15.582)" fill="#fff"/>
    <path id="Tracé_13" data-name="Tracé 13" d="M72.8,34.452A13.852,13.852,0,1,0,58.952,48.3,13.85,13.85,0,0,0,72.8,34.452Zm-24.274,0A10.422,10.422,0,1,1,58.952,44.874,10.36,10.36,0,0,1,48.53,34.452Z" transform="translate(14.397 6.576)" fill="#fff"/>
  </g>
  <g id="Groupe_6" data-name="Groupe 6" transform="translate(139.707 33.772)">
    <path id="Tracé_14" data-name="Tracé 14" d="M135.583,29.69l-3.694,6.464a18.825,18.825,0,0,0-10.158-3.166c-3.826,0-6.2,1.583-6.2,4.485,0,3.43,4.222,4.222,10.554,6.6,6.728,2.375,10.686,5.277,10.686,11.477,0,8.443-6.728,13.192-16.227,13.192A29.629,29.629,0,0,1,105.9,64.913l2.638-7.256a25.959,25.959,0,0,0,11.477,2.9c5.013,0,7.52-1.847,7.52-4.617,0-3.166-3.694-4.09-9.63-6.068-6.728-2.243-11.477-5.277-11.477-12.137,0-7.783,6.2-12.137,15.171-12.137C127.8,25.6,132.812,27.579,135.583,29.69Z" transform="translate(-105.9 -25.6)" fill="#fff"/>
    <path id="Tracé_15" data-name="Tracé 15" d="M155.572,33.62V67.788h-8.707V33.62H134.2V26.1h34.036v7.52Z" transform="translate(-96.866 -25.44)" fill="#fff"/>
    <path id="Tracé_16" data-name="Tracé 16" d="M176.007,33.62v9.367h16.754v7.52H176.007v9.762H195.4v7.52H167.3V26.1h28.1v7.52Z" transform="translate(-86.299 -25.44)" fill="#fff"/>
    <path id="Tracé_17" data-name="Tracé 17" d="M206.173,59.74l-2.77,8.047h-9.1L209.867,26.1h8.839L234.8,67.788h-9.5l-2.77-8.047H206.173Zm8.047-23.614-5.673,16.622h11.477Z" transform="translate(-77.68 -25.44)" fill="#fff"/>
    <path id="Tracé_18" data-name="Tracé 18" d="M267.583,42.195,256.238,66.469h-4.881l-11.345-24.01V67.788H231.7V26.1h8.311L254,56.179,267.451,26.1h8.443V67.788h-8.311Z" transform="translate(-65.74 -25.44)" fill="#fff"/>
    <path id="Tracé_19" data-name="Tracé 19" d="M280.809,31.5a5.611,5.611,0,0,1-5.8,5.8,5.687,5.687,0,0,1-5.8-5.8,5.8,5.8,0,0,1,11.609,0Zm-10.554,0a4.751,4.751,0,1,0,9.5,0,4.751,4.751,0,1,0-9.5,0Zm4.881-2.9c1.451,0,1.979.792,1.979,1.583a1.782,1.782,0,0,1-1.055,1.583l1.319,2.507h-1.055l-1.187-2.243h-1.187v2.243h-.923V28.6Zm-1.055,2.638h1.055a.941.941,0,0,0,1.055-.923c0-.528-.264-.923-1.055-.923h-1.055Z" transform="translate(-53.769 -25.568)" fill="#fff"/>
  </g>
</svg>
